<svg xmlns="http://www.w3.org/2000/svg" viewBox="0 0 34 34" width="34" height="34">
	<style>
		tspan { white-space:pre }
		.shp0 { fill: #ffffff } 
	</style>
	<g id="Home">
		<g id="Scroll Down">
			<path id="Shape 38" class="shp0" d="M17.5 34C8.39 34 1 26.61 1 17.5C1 8.39 8.39 1 17.5 1C26.61 1 34 8.39 34 17.5C34 26.61 26.61 34 17.5 34ZM17.5 4.09C10.1 4.09 4.09 10.1 4.09 17.5C4.09 24.9 10.1 30.91 17.5 30.91C24.9 30.91 30.91 24.9 30.91 17.5C30.91 10.1 24.9 4.09 17.5 4.09ZM23.29 20.08L18.65 25.24L18.65 25.23C18.36 25.55 17.96 25.75 17.5 25.75C17.04 25.75 16.64 25.55 16.35 25.23L16.35 25.24L11.71 20.08L11.71 20.08C11.47 19.8 11.31 19.44 11.31 19.05C11.31 18.19 12 17.5 12.86 17.5C13.32 17.5 13.72 17.7 14.01 18.02L14.01 18.01L15.95 20.17L15.95 10.8C15.95 9.94 16.65 9.25 17.5 9.25C18.35 9.25 19.05 9.94 19.05 10.8L19.05 20.17L20.99 18.01L20.99 18.02C21.28 17.7 21.68 17.5 22.14 17.5C22.99 17.5 23.69 18.19 23.69 19.05C23.69 19.44 23.53 19.8 23.29 20.08L23.29 20.08Z" />
		</g>
	</g>
</svg>