<svg xmlns="http://www.w3.org/2000/svg" viewBox="0 0 9 15" width="9" height="15">
	<style>
		tspan { white-space:pre }
		.shp0 { fill: #28c8c6 } 
	</style>
	<g id="Home">
		<g id="FEATURES">
			<g id="01">
				<path id="Shape 45" class="shp0" d="M0.35,2.76l5.24,5.24l-5.31,5.31l0,0c-0.17,0.18 -0.28,0.42 -0.28,0.69c0,0.55 0.45,1 1,1c0.27,0 0.51,-0.11 0.69,-0.28l0,0l6,-6l0,0c0.19,-0.18 0.31,-0.44 0.31,-0.72c0,0 0,0 0,0c0,0 0,0 0,0c0,-0.28 -0.12,-0.54 -0.31,-0.72l0,0l-6,-6l0,0c-0.18,-0.17 -0.42,-0.28 -0.69,-0.28c-0.55,0 -1,0.45 -1,1c0,0.3 0.14,0.57 0.35,0.76z" />
			</g>
		</g>
	</g>
</svg>