<svg xmlns="http://www.w3.org/2000/svg" viewBox="0 0 68 68" width="68" height="68">
	<style>
		tspan { white-space:pre }
		.shp0 { fill: #28c8c6 } 
	</style>
	<g id="Header">
		<g id="Logo">
			<path id="Shape 47" class="shp0" d="M35.77 11.71L53.36 52.41L22.32 34.37L32.11 11.71C32.72 11.11 33.33 10.85 33.93 10.95C34.54 10.84 35.16 11.1 35.77 11.71ZM33.09 41.64L14.52 52.41L21.98 35.18L33.09 41.64ZM33.99 68C24.66 68 16.58 64.65 9.96 58.04C3.35 51.42 0 43.34 0 33.99C0 24.66 3.35 16.58 9.96 9.96C16.58 3.35 24.66 0 33.99 0C43.34 0 51.42 3.35 58.04 9.96L58.04 9.96C58.04 9.96 58.04 9.96 58.04 9.96C64.65 16.58 68 24.66 68 33.99C68 43.34 64.65 51.42 58.04 58.04C51.42 64.65 43.34 68 33.99 68ZM33.99 3.61C25.53 3.61 18.51 6.52 12.52 12.52C6.52 18.51 3.61 25.53 3.61 33.99C3.61 42.46 6.52 49.49 12.52 55.48C18.51 61.48 25.53 64.39 33.99 64.39C42.46 64.39 49.49 61.48 55.48 55.48C61.48 49.49 64.39 42.46 64.39 33.99C64.39 25.53 61.48 18.51 55.48 12.52L55.48 12.52C49.49 6.52 42.46 3.61 33.99 3.61Z" />
		</g>
	</g>
</svg>